# xmcd
# 
# Track frame offsets:
#     150
#     11115
#     28589
#     40512
#     56027
#     73210
#     85531
#     98809
#     116337
#     130074
#     142563
#     145858
#     162429
#     175750
# 
# Disc length: 2595
# 
# Revision: 1
# Processed by: cddbd v1.5.2PL0 Copyright (c) Steve Scherf et al.
# Submitted via: fre:ac v1.0.17
# 
DISCID=af0a210e
DTITLE=Hot Club Of Cowtown - Wishful Thinking
DYEAR=2009
DGENRE=Country
TTITLE0=Can't Go On This Way
TTITLE1=Reunion
TTITLE2=If You Leave Me
TTITLE3=Cabiria
TTITLE4=Heart Of Romain
TTITLE5=Georgia
TTITLE6=What You Meant To Me
TTITLE7=Carry Me Close
TTITLE8=The Long Way Home
TTITLE9=The Magic Violin
TTITLE10=(Intro) One Step Closer
TTITLE11=One Step Closer
TTITLE12=Columbus Stockade Blues
TTITLE13=Someone To Watch Over Me
EXTD=
EXTT0=
EXTT1=
EXTT2=
EXTT3=
EXTT4=
EXTT5=
EXTT6=
EXTT7=
EXTT8=
EXTT9=
EXTT10=
EXTT11=
EXTT12=
EXTT13=
PLAYORDER=
